<svg width="150" height="50" viewBox="0 0 150 50" fill="none" xmlns="http://www.w3.org/2000/svg">
  <rect width="150" height="50" rx="8" fill="white" fill-opacity="0.1"/>
  <path d="M30 25C30 21.134 33.134 18 37 18H113C116.866 18 120 21.134 120 25C120 28.866 116.866 32 113 32H37C33.134 32 30 28.866 30 25Z" fill="white"/>
  <path d="M44.5 25C44.5 22.5147 46.5147 20.5 49 20.5H55C57.4853 20.5 59.5 22.5147 59.5 25C59.5 27.4853 57.4853 29.5 55 29.5H49C46.5147 29.5 44.5 27.4853 44.5 25Z" fill="#9333EA"/>
  <path d="M65 25C65 22.5147 67.0147 20.5 69.5 20.5H101C103.485 20.5 105.5 22.5147 105.5 25C105.5 27.4853 103.485 29.5 101 29.5H69.5C67.0147 29.5 65 27.4853 65 25Z" fill="#9333EA"/>
</svg> 